<svg xmlns="http://www.w3.org/2000/svg" width="100" height="93" viewBox="0 0 100 93" version="1.1"><path d="M 75 20 C 73.625 20.440, 69.125 20.841, 65 20.890 C 54.850 21.011, 46.202 24.114, 39.687 29.971 C 34.479 34.653, 30.027 42.554, 30.010 47.143 C 30 49.866, 28.445 51, 24.722 51 C 23.559 51, 20.895 52.186, 18.803 53.637 C 11.869 58.442, 11.401 66.766, 17.798 71.500 C 20.018 73.143, 22.016 73.491, 29 73.449 C 38.585 73.392, 42.920 71.669, 48.179 65.826 C 52.454 61.077, 53.728 58.245, 56.028 48.378 C 58.516 37.708, 60.822 32.374, 64.529 28.711 C 67.913 25.366, 70.018 25.550, 71.838 29.347 C 73.917 33.685, 72.562 38.259, 67.972 42.407 C 65.787 44.380, 64 46.409, 64 46.916 C 64 47.422, 65.498 48.763, 67.328 49.894 C 72.897 53.336, 74.430 59.185, 71.423 65.522 C 69.580 69.406, 64.003 72.469, 60.415 71.568 C 58.147 70.999, 56.955 69, 58.883 69 C 60.508 69, 60.840 64.983, 59.340 63.482 C 57.365 61.508, 56.389 61.611, 53.949 64.051 C 51.787 66.213, 52.001 69.219, 54.504 71.861 C 56.322 73.780, 64.097 74.453, 68.324 73.058 C 73.148 71.466, 78.554 65.666, 79.987 60.545 C 81.491 55.173, 79.480 49.749, 75.048 47.227 C 73.379 46.277, 72.010 45.122, 72.006 44.659 C 72.003 44.196, 73.575 41.978, 75.500 39.729 C 79.718 34.802, 80.378 28.557, 77.004 25.503 C 75.480 24.125, 75.272 23.377, 76.126 22.348 C 76.741 21.607, 77.865 21, 78.622 21 C 79.380 21, 80 20.550, 80 20 C 80 18.855, 78.575 18.855, 75 20 M 52.953 24.945 C 44.919 27.384, 34.931 37.247, 33.089 44.560 C 31.880 49.364, 32.239 51, 34.502 51 C 36.224 51, 43 54.933, 43 55.932 C 43 57.642, 41.568 57.828, 38.923 56.460 C 33.934 53.880, 32.352 54.467, 32.752 58.750 C 33.083 62.285, 33.014 62.389, 31.551 60.559 C 30.698 59.491, 30 57.804, 30 56.809 C 30 55.453, 29.224 55, 26.904 55 C 20.008 55, 14.358 61.563, 17.001 66.502 C 19.314 70.823, 29.590 72.487, 36.282 69.623 C 42.028 67.165, 44.609 63.202, 49.046 50.027 C 53.757 36.035, 54.679 34.266, 60.385 28.250 L 64.416 24 59.958 24.086 C 57.506 24.133, 54.354 24.520, 52.953 24.945" stroke="none" fill="#ffffff" fill-rule="evenodd"/></svg>