<svg xmlns="http://www.w3.org/2000/svg" width="358" height="96" viewBox="0 0 358 96" version="1.1"><path d="M 90.443 52.500 C 90.443 69, 90.580 75.890, 90.748 67.812 C 90.915 59.733, 90.916 46.233, 90.748 37.812 C 90.581 29.390, 90.444 36, 90.443 52.500 M 63.500 31.055 C 62.400 31.497, 58.575 31.895, 55 31.939 C 43.243 32.084, 34.356 38.086, 30.935 48.192 C 29.384 52.775, 28.717 53.578, 26.005 54.133 C 19.534 55.456, 16.157 61.688, 19.016 67.030 C 20.436 69.683, 26.867 71.397, 32.327 70.578 C 41.285 69.235, 46.905 63.244, 48.948 52.861 C 51.256 41.125, 56.575 33.147, 59.884 36.456 C 62.417 38.989, 61.649 43.735, 58.116 47.380 L 54.899 50.699 58.450 54.250 C 60.748 56.548, 62 58.744, 62 60.477 C 62 63.962, 57.021 69, 53.577 69 C 50.796 69, 50.321 68.079, 52.158 66.242 C 53.034 65.366, 53.005 64.711, 52.035 63.542 C 50.421 61.597, 49.540 61.603, 47.571 63.571 C 45.513 65.630, 45.589 66.589, 48 69 C 51.917 72.917, 61.547 70.430, 65.114 64.580 C 68.007 59.836, 67.577 55.342, 63.904 51.910 L 60.807 49.018 63.404 45.932 C 66.399 42.372, 66.815 37.558, 64.362 34.848 C 62.831 33.156, 62.875 32.982, 65.033 32.183 C 66.303 31.714, 66.928 31.087, 66.421 30.790 C 65.914 30.493, 64.600 30.612, 63.500 31.055 M 45.422 35.418 C 41.324 37.203, 35.245 42.625, 33.449 46.099 C 30.960 50.911, 31.551 53.436, 35.500 54.864 C 37.425 55.560, 39 56.791, 39 57.600 C 39 58.744, 38.570 58.840, 37.066 58.035 C 33.693 56.230, 32.008 56.788, 31.894 59.750 L 31.787 62.500 30.701 59.750 C 29.374 56.392, 26.364 56.139, 22.635 59.073 C 19.018 61.918, 19.153 65.510, 22.950 67.474 C 28.795 70.497, 35.973 68.701, 39.777 63.265 C 40.842 61.744, 42.953 56.568, 44.470 51.761 C 46.497 45.338, 48.280 41.827, 51.199 38.511 L 55.170 34 51.835 34.039 C 50.001 34.061, 47.115 34.681, 45.422 35.418 M 116.490 35.250 C 116.244 35.938, 115.213 43.149, 114.199 51.275 C 112.665 63.563, 112.579 66.236, 113.690 67.158 C 115.696 68.822, 128.088 67.652, 131.823 65.445 C 137.374 62.167, 137.970 55.194, 132.998 51.711 L 130.870 50.221 133.435 47.656 C 136.987 44.104, 136.956 38.897, 133.365 36.073 C 131.278 34.431, 129.297 34, 123.834 34 C 119.222 34, 116.789 34.414, 116.490 35.250 M 247.536 35.250 C 247.316 35.938, 246.354 43.177, 245.399 51.337 C 243.399 68.430, 243.218 67.973, 252 67.963 C 258.946 67.954, 265.646 65.060, 267.007 61.480 C 268.478 57.613, 268.260 56.463, 265.420 53.087 L 262.839 50.020 264.920 47.375 C 267.898 43.589, 267.656 38.661, 264.365 36.073 C 262.278 34.431, 260.297 34, 254.834 34 C 250.197 34, 247.806 34.410, 247.536 35.250 M 119.736 36.635 C 119.448 37.111, 119.052 39.975, 118.856 43 L 118.500 48.500 123.399 48.428 C 127.446 48.368, 128.706 47.881, 130.649 45.622 C 133.342 42.490, 133.540 41.121, 131.668 38.560 C 130.237 36.603, 120.689 35.062, 119.736 36.635 M 251.129 37.759 C 250.611 38.726, 250.039 41.539, 249.858 44.009 C 249.536 48.392, 249.604 48.507, 252.663 48.806 C 257.325 49.261, 262.804 46.630, 263.572 43.568 C 264.448 40.079, 263.539 38.155, 260.461 36.985 C 256.395 35.439, 252.184 35.788, 251.129 37.759 M 205.650 40.758 C 205.392 41.174, 204.866 43.199, 204.479 45.258 C 204.069 47.447, 203.201 49, 202.389 49 C 200.730 49, 200.527 50.676, 202.121 51.207 C 202.808 51.436, 203.292 54.634, 203.371 59.454 C 203.458 64.766, 203.907 67.464, 204.750 67.747 C 205.658 68.052, 206 66.520, 206 62.148 C 206 54.620, 207.291 51, 209.975 51 C 212.725 51, 212.554 49.218, 209.766 48.820 C 207.796 48.538, 207.569 47.999, 207.843 44.250 C 208.120 40.455, 206.969 38.623, 205.650 40.758 M 313.200 41.200 C 312.540 41.860, 312 43.638, 312 45.150 C 312 46.710, 311.242 48.347, 310.250 48.932 C 308.824 49.772, 308.752 50.130, 309.864 50.861 C 310.915 51.553, 311.068 53.344, 310.531 58.688 C 309.960 64.378, 310.119 65.854, 311.418 66.932 C 312.288 67.654, 313.049 68.077, 313.109 67.872 C 313.170 67.668, 313.390 64.575, 313.600 61 C 314.079 52.838, 314.329 52.221, 317.724 50.845 L 320.500 49.719 318 49.047 C 315.765 48.446, 315.534 47.930, 315.817 44.187 C 316.140 39.931, 315.360 39.040, 313.200 41.200 M 146.314 49.950 C 144.561 51.019, 142.649 52.787, 142.064 53.881 C 140.525 56.757, 140.758 62.210, 142.529 64.738 C 144.643 67.756, 150.290 68.695, 153.536 66.568 C 156.431 64.672, 155.964 62.414, 153.005 63.997 C 150.008 65.602, 147.230 65.166, 145.598 62.837 C 143.654 60.061, 144.132 59.403, 148.619 58.674 C 155.277 57.594, 159.436 51.374, 155.066 49.035 C 152.235 47.520, 149.899 47.764, 146.314 49.950 M 163.676 48.859 C 160.245 50.211, 161.664 51.500, 166.584 51.500 C 170.246 51.500, 171.500 51.876, 171.500 52.972 C 171.500 53.939, 169.955 54.703, 167 55.197 C 162.426 55.963, 158 59.581, 158 62.556 C 158 64.584, 161.645 68, 163.809 68 C 164.804 68, 166.491 67.359, 167.559 66.576 C 169.250 65.336, 169.723 65.354, 171.229 66.712 C 173.413 68.682, 173.633 68.076, 174.456 57.805 C 175.016 50.822, 174.891 50.012, 173.102 49.055 C 170.887 47.869, 166.423 47.777, 163.676 48.859 M 180.980 48.750 C 180.969 49.163, 180.547 52.357, 180.042 55.848 C 179.494 59.637, 179.488 63.154, 180.027 64.570 C 181.191 67.634, 185.018 68.578, 188.620 66.691 C 191.148 65.367, 191.560 65.384, 192.637 66.856 C 193.297 67.758, 194.039 68.273, 194.287 67.998 C 194.535 67.724, 195.052 63.065, 195.437 57.644 C 196 49.703, 195.880 47.872, 194.818 48.221 C 194.093 48.460, 192.926 51.522, 192.224 55.027 C 190.810 62.091, 188.661 65.238, 185.555 64.794 C 183.650 64.522, 183.516 63.896, 183.721 56.250 C 183.900 49.555, 183.665 48, 182.471 48 C 181.662 48, 180.991 48.337, 180.980 48.750 M 213.552 48.915 C 212.622 50.421, 215.128 65.387, 216.567 66.914 C 217.669 68.083, 218.172 68.102, 219.474 67.022 C 221.882 65.023, 222.134 66.185, 220.493 71.710 C 218.565 78.205, 217.063 79.426, 211.995 78.615 C 207.382 77.878, 206.516 79.485, 210.674 81.066 C 214.671 82.586, 218.876 81.252, 220.977 77.798 C 222.423 75.420, 230 50.856, 230 48.546 C 230 48.246, 229.338 48, 228.528 48 C 227.596 48, 226.443 50.111, 225.385 53.750 C 223.606 59.873, 221.223 63.917, 219.365 63.969 C 218.724 63.986, 217.931 61.500, 217.541 58.250 C 216.380 48.562, 215.313 46.066, 213.552 48.915 M 273.980 48.750 C 273.969 49.163, 273.547 52.357, 273.042 55.848 C 272.494 59.637, 272.488 63.154, 273.027 64.570 C 274.191 67.634, 278.018 68.578, 281.620 66.691 C 284.148 65.367, 284.560 65.384, 285.637 66.856 C 286.297 67.758, 287.039 68.273, 287.287 67.998 C 287.535 67.724, 288.052 63.065, 288.437 57.644 C 289 49.703, 288.880 47.872, 287.818 48.221 C 287.093 48.460, 285.926 51.522, 285.224 55.027 C 283.810 62.091, 281.661 65.238, 278.555 64.794 C 276.650 64.522, 276.516 63.896, 276.721 56.250 C 276.900 49.555, 276.665 48, 275.471 48 C 274.662 48, 273.991 48.337, 273.980 48.750 M 296.223 49.557 C 293.098 51.745, 293.444 53.846, 297.634 58.137 C 302.406 63.024, 301.765 65.538, 295.983 64.613 C 291.439 63.887, 290.502 65.480, 294.565 67.025 C 298.436 68.497, 300.789 68.211, 303 66 C 305.747 63.253, 305.584 62.589, 300.914 57.522 C 296.563 52.802, 296.543 50.763, 300.849 51.041 C 304.947 51.305, 305.339 51.113, 304 49.500 C 302.392 47.562, 299.035 47.587, 296.223 49.557 M 118.259 52.250 C 117.716 52.938, 116.982 56.087, 116.628 59.250 L 115.983 65 121.041 65 C 129.445 65, 134.165 61.246, 132.471 55.909 C 131.257 52.083, 120.562 49.330, 118.259 52.250 M 147.223 52.557 C 146 53.413, 145 54.700, 145 55.418 C 145 57.102, 149.845 56.309, 152.226 54.236 C 155.703 51.209, 151.270 49.722, 147.223 52.557 M 249.164 53.123 C 248.678 54.430, 248.042 57.687, 247.751 60.359 L 247.221 65.219 253.554 64.816 C 260.860 64.350, 264 62.262, 264 57.868 C 264 54.310, 260.593 51.934, 254.509 51.248 C 250.503 50.797, 249.957 50.988, 249.164 53.123 M 166 58.358 C 163.238 59.259, 162.500 60.027, 162.500 62 C 162.500 65.860, 166.844 65.432, 169.236 61.335 C 171.450 57.545, 170.676 56.833, 166 58.358" stroke="none" fill="#ffffff" fill-rule="evenodd"/><path d="M 90.443 52.500 C 90.443 69, 90.580 75.890, 90.748 67.812 C 90.915 59.733, 90.916 46.233, 90.748 37.812 C 90.581 29.390, 90.444 36, 90.443 52.500 M 63.500 31.055 C 62.400 31.497, 58.575 31.895, 55 31.939 C 43.243 32.084, 34.356 38.086, 30.935 48.192 C 29.384 52.775, 28.717 53.578, 26.005 54.133 C 19.534 55.456, 16.157 61.688, 19.016 67.030 C 20.436 69.683, 26.867 71.397, 32.327 70.578 C 41.285 69.235, 46.905 63.244, 48.948 52.861 C 51.256 41.125, 56.575 33.147, 59.884 36.456 C 62.417 38.989, 61.649 43.735, 58.116 47.380 L 54.899 50.699 58.450 54.250 C 60.748 56.548, 62 58.744, 62 60.477 C 62 63.962, 57.021 69, 53.577 69 C 50.796 69, 50.321 68.079, 52.158 66.242 C 53.034 65.366, 53.005 64.711, 52.035 63.542 C 50.421 61.597, 49.540 61.603, 47.571 63.571 C 45.513 65.630, 45.589 66.589, 48 69 C 51.917 72.917, 61.547 70.430, 65.114 64.580 C 68.007 59.836, 67.577 55.342, 63.904 51.910 L 60.807 49.018 63.404 45.932 C 66.399 42.372, 66.815 37.558, 64.362 34.848 C 62.831 33.156, 62.875 32.982, 65.033 32.183 C 66.303 31.714, 66.928 31.087, 66.421 30.790 C 65.914 30.493, 64.600 30.612, 63.500 31.055 M 45.422 35.418 C 41.324 37.203, 35.245 42.625, 33.449 46.099 C 30.960 50.911, 31.551 53.436, 35.500 54.864 C 37.425 55.560, 39 56.791, 39 57.600 C 39 58.744, 38.570 58.840, 37.066 58.035 C 33.693 56.230, 32.008 56.788, 31.894 59.750 L 31.787 62.500 30.701 59.750 C 29.374 56.392, 26.364 56.139, 22.635 59.073 C 19.018 61.918, 19.153 65.510, 22.950 67.474 C 28.795 70.497, 35.973 68.701, 39.777 63.265 C 40.842 61.744, 42.953 56.568, 44.470 51.761 C 46.497 45.338, 48.280 41.827, 51.199 38.511 L 55.170 34 51.835 34.039 C 50.001 34.061, 47.115 34.681, 45.422 35.418 M 116.490 35.250 C 116.244 35.938, 115.213 43.149, 114.199 51.275 C 112.665 63.563, 112.579 66.236, 113.690 67.158 C 115.696 68.822, 128.088 67.652, 131.823 65.445 C 137.374 62.167, 137.970 55.194, 132.998 51.711 L 130.870 50.221 133.435 47.656 C 136.987 44.104, 136.956 38.897, 133.365 36.073 C 131.278 34.431, 129.297 34, 123.834 34 C 119.222 34, 116.789 34.414, 116.490 35.250 M 247.536 35.250 C 247.316 35.938, 246.354 43.177, 245.399 51.337 C 243.399 68.430, 243.218 67.973, 252 67.963 C 258.946 67.954, 265.646 65.060, 267.007 61.480 C 268.478 57.613, 268.260 56.463, 265.420 53.087 L 262.839 50.020 264.920 47.375 C 267.898 43.589, 267.656 38.661, 264.365 36.073 C 262.278 34.431, 260.297 34, 254.834 34 C 250.197 34, 247.806 34.410, 247.536 35.250 M 119.736 36.635 C 119.448 37.111, 119.052 39.975, 118.856 43 L 118.500 48.500 123.399 48.428 C 127.446 48.368, 128.706 47.881, 130.649 45.622 C 133.342 42.490, 133.540 41.121, 131.668 38.560 C 130.237 36.603, 120.689 35.062, 119.736 36.635 M 251.129 37.759 C 250.611 38.726, 250.039 41.539, 249.858 44.009 C 249.536 48.392, 249.604 48.507, 252.663 48.806 C 257.325 49.261, 262.804 46.630, 263.572 43.568 C 264.448 40.079, 263.539 38.155, 260.461 36.985 C 256.395 35.439, 252.184 35.788, 251.129 37.759 M 205.650 40.758 C 205.392 41.174, 204.866 43.199, 204.479 45.258 C 204.069 47.447, 203.201 49, 202.389 49 C 200.730 49, 200.527 50.676, 202.121 51.207 C 202.808 51.436, 203.292 54.634, 203.371 59.454 C 203.458 64.766, 203.907 67.464, 204.750 67.747 C 205.658 68.052, 206 66.520, 206 62.148 C 206 54.620, 207.291 51, 209.975 51 C 212.725 51, 212.554 49.218, 209.766 48.820 C 207.796 48.538, 207.569 47.999, 207.843 44.250 C 208.120 40.455, 206.969 38.623, 205.650 40.758 M 313.200 41.200 C 312.540 41.860, 312 43.638, 312 45.150 C 312 46.710, 311.242 48.347, 310.250 48.932 C 308.824 49.772, 308.752 50.130, 309.864 50.861 C 310.915 51.553, 311.068 53.344, 310.531 58.688 C 309.960 64.378, 310.119 65.854, 311.418 66.932 C 312.288 67.654, 313.049 68.077, 313.109 67.872 C 313.170 67.668, 313.390 64.575, 313.600 61 C 314.079 52.838, 314.329 52.221, 317.724 50.845 L 320.500 49.719 318 49.047 C 315.765 48.446, 315.534 47.930, 315.817 44.187 C 316.140 39.931, 315.360 39.040, 313.200 41.200 M 146.314 49.950 C 144.561 51.019, 142.649 52.787, 142.064 53.881 C 140.525 56.757, 140.758 62.210, 142.529 64.738 C 144.643 67.756, 150.290 68.695, 153.536 66.568 C 156.431 64.672, 155.964 62.414, 153.005 63.997 C 150.008 65.602, 147.230 65.166, 145.598 62.837 C 143.654 60.061, 144.132 59.403, 148.619 58.674 C 155.277 57.594, 159.436 51.374, 155.066 49.035 C 152.235 47.520, 149.899 47.764, 146.314 49.950 M 163.676 48.859 C 160.245 50.211, 161.664 51.500, 166.584 51.500 C 170.246 51.500, 171.500 51.876, 171.500 52.972 C 171.500 53.939, 169.955 54.703, 167 55.197 C 162.426 55.963, 158 59.581, 158 62.556 C 158 64.584, 161.645 68, 163.809 68 C 164.804 68, 166.491 67.359, 167.559 66.576 C 169.250 65.336, 169.723 65.354, 171.229 66.712 C 173.413 68.682, 173.633 68.076, 174.456 57.805 C 175.016 50.822, 174.891 50.012, 173.102 49.055 C 170.887 47.869, 166.423 47.777, 163.676 48.859 M 180.980 48.750 C 180.969 49.163, 180.547 52.357, 180.042 55.848 C 179.494 59.637, 179.488 63.154, 180.027 64.570 C 181.191 67.634, 185.018 68.578, 188.620 66.691 C 191.148 65.367, 191.560 65.384, 192.637 66.856 C 193.297 67.758, 194.039 68.273, 194.287 67.998 C 194.535 67.724, 195.052 63.065, 195.437 57.644 C 196 49.703, 195.880 47.872, 194.818 48.221 C 194.093 48.460, 192.926 51.522, 192.224 55.027 C 190.810 62.091, 188.661 65.238, 185.555 64.794 C 183.650 64.522, 183.516 63.896, 183.721 56.250 C 183.900 49.555, 183.665 48, 182.471 48 C 181.662 48, 180.991 48.337, 180.980 48.750 M 213.552 48.915 C 212.622 50.421, 215.128 65.387, 216.567 66.914 C 217.669 68.083, 218.172 68.102, 219.474 67.022 C 221.882 65.023, 222.134 66.185, 220.493 71.710 C 218.565 78.205, 217.063 79.426, 211.995 78.615 C 207.382 77.878, 206.516 79.485, 210.674 81.066 C 214.671 82.586, 218.876 81.252, 220.977 77.798 C 222.423 75.420, 230 50.856, 230 48.546 C 230 48.246, 229.338 48, 228.528 48 C 227.596 48, 226.443 50.111, 225.385 53.750 C 223.606 59.873, 221.223 63.917, 219.365 63.969 C 218.724 63.986, 217.931 61.500, 217.541 58.250 C 216.380 48.562, 215.313 46.066, 213.552 48.915 M 273.980 48.750 C 273.969 49.163, 273.547 52.357, 273.042 55.848 C 272.494 59.637, 272.488 63.154, 273.027 64.570 C 274.191 67.634, 278.018 68.578, 281.620 66.691 C 284.148 65.367, 284.560 65.384, 285.637 66.856 C 286.297 67.758, 287.039 68.273, 287.287 67.998 C 287.535 67.724, 288.052 63.065, 288.437 57.644 C 289 49.703, 288.880 47.872, 287.818 48.221 C 287.093 48.460, 285.926 51.522, 285.224 55.027 C 283.810 62.091, 281.661 65.238, 278.555 64.794 C 276.650 64.522, 276.516 63.896, 276.721 56.250 C 276.900 49.555, 276.665 48, 275.471 48 C 274.662 48, 273.991 48.337, 273.980 48.750 M 296.223 49.557 C 293.098 51.745, 293.444 53.846, 297.634 58.137 C 302.406 63.024, 301.765 65.538, 295.983 64.613 C 291.439 63.887, 290.502 65.480, 294.565 67.025 C 298.436 68.497, 300.789 68.211, 303 66 C 305.747 63.253, 305.584 62.589, 300.914 57.522 C 296.563 52.802, 296.543 50.763, 300.849 51.041 C 304.947 51.305, 305.339 51.113, 304 49.500 C 302.392 47.562, 299.035 47.587, 296.223 49.557 M 118.259 52.250 C 117.716 52.938, 116.982 56.087, 116.628 59.250 L 115.983 65 121.041 65 C 129.445 65, 134.165 61.246, 132.471 55.909 C 131.257 52.083, 120.562 49.330, 118.259 52.250 M 147.223 52.557 C 146 53.413, 145 54.700, 145 55.418 C 145 57.102, 149.845 56.309, 152.226 54.236 C 155.703 51.209, 151.270 49.722, 147.223 52.557 M 249.164 53.123 C 248.678 54.430, 248.042 57.687, 247.751 60.359 L 247.221 65.219 253.554 64.816 C 260.860 64.350, 264 62.262, 264 57.868 C 264 54.310, 260.593 51.934, 254.509 51.248 C 250.503 50.797, 249.957 50.988, 249.164 53.123 M 166 58.358 C 163.238 59.259, 162.500 60.027, 162.500 62 C 162.500 65.860, 166.844 65.432, 169.236 61.335 C 171.450 57.545, 170.676 56.833, 166 58.358" stroke="none" fill="#ffffff" fill-rule="evenodd"/></svg>